<svg xmlns="http://www.w3.org/2000/svg" version="1.0" preserveAspectRatio="xMidYMid meet" viewBox="181 449.19 653.99 161.96">

<g transform="translate(0.000000,1024.000000) scale(0.100000,-0.100000)" fill="#000000" stroke="none">
<path d="M5545 5740 c-257 -40 -412 -267 -374 -547 27 -208 169 -358 369 -394 251 -44 483 112 536 360 18 84 17 139 -1 226 -41 193 -176 324 -365 354 -72 12 -92 12 -165 1z m201 -170 c56 -28 106 -93 129 -171 26 -86 17 -236 -18 -305 -103 -203 -375 -198 -468 9 -21 45 -24 67 -24 167 0 103 3 121 26 170 67 143 216 197 355 130z"/>
<path d="M7938 5735 c-60 -16 -108 -46 -149 -92 -44 -51 -59 -92 -59 -165 1 -119 58 -191 196 -247 203 -82 234 -104 234 -171 0 -49 -28 -84 -85 -106 -96 -36 -214 4 -306 104 l-49 54 0 -111 0 -111 39 -25 c129 -86 326 -99 448 -29 124 71 178 234 119 361 -36 76 -77 103 -266 174 -145 55 -188 126 -121 201 25 28 35 32 92 36 85 5 164 -24 227 -84 25 -24 47 -44 48 -44 1 0 1 44 0 97 l-1 97 -54 27 c-92 46 -219 60 -313 34z"/>
<path d="M2132 5708 c8 -15 14 -83 16 -190 l4 -168 -171 0 -171 0 0 -75 0 -75 170 0 170 0 0 -137 c-1 -130 -8 -194 -25 -235 -7 -17 2 -18 110 -18 108 0 117 1 110 18 -12 31 -16 75 -18 225 l-2 147 233 0 232 0 0 -137 c-1 -130 -8 -194 -25 -235 -7 -17 2 -18 109 -18 l116 0 -7 28 c-11 36 -10 841 0 870 8 22 8 22 -106 22 l-114 0 13 -52 c9 -32 14 -107 14 -190 l0 -138 -232 2 -233 3 -3 110 c-2 103 7 207 23 248 7 16 -2 17 -109 17 l-117 0 13 -22z"/>
<path d="M3126 5683 c11 -35 14 -115 14 -328 0 -310 5 -348 59 -422 67 -92 163 -135 306 -137 154 -1 266 54 331 161 47 78 54 136 54 428 0 204 3 272 15 304 l14 41 -98 0 -99 0 14 -47 c20 -68 20 -530 -1 -599 -26 -88 -101 -138 -205 -137 -79 0 -136 26 -177 80 l-28 36 0 306 c0 168 3 318 8 334 l7 27 -114 0 -114 0 14 -47z"/>
<path d="M4055 5713 c20 -47 24 -123 25 -423 0 -292 -5 -387 -26 -457 -6 -23 -5 -23 95 -23 l102 0 -13 23 c-10 16 -14 109 -18 350 -3 180 -3 327 1 327 3 0 68 -157 144 -350 l139 -350 31 0 c32 0 33 2 88 133 31 72 95 229 142 347 48 118 89 217 92 220 8 8 -3 -654 -11 -677 -8 -23 -8 -23 107 -23 l115 0 -14 38 c-19 54 -19 790 0 845 l14 37 -133 0 -133 0 -17 -42 c-9 -24 -64 -157 -123 -297 -79 -189 -108 -249 -114 -235 -11 29 -166 430 -195 507 l-25 67 -140 0 c-130 0 -140 -1 -133 -17z"/>
<path d="M6195 5693 c20 -55 20 -791 1 -845 l-14 -38 120 0 c111 0 119 1 107 17 -10 12 -15 60 -17 180 l-4 164 53 -3 53 -3 91 -177 90 -178 122 0 122 0 -52 70 c-52 68 -193 308 -186 314 2 2 15 9 27 15 13 7 42 29 64 49 110 99 118 278 17 382 -75 78 -101 84 -371 88 l-236 4 13 -39z m401 -122 c45 -27 67 -82 62 -148 -4 -46 -10 -60 -42 -91 -36 -37 -37 -37 -131 -40 l-95 -4 0 151 0 151 88 0 c67 0 94 -4 118 -19z"/>
<path d="M7010 5726 c0 -3 5 -17 11 -33 25 -63 20 -801 -6 -865 -7 -17 12 -18 304 -18 l311 0 0 114 0 115 -50 -34 c-60 -40 -99 -47 -250 -43 l-115 3 -3 118 -3 117 154 0 153 0 0 75 -1 75 -153 0 -153 0 3 116 3 116 147 -1 c128 0 153 -3 188 -21 l40 -20 0 95 0 95 -290 0 c-159 0 -290 -2 -290 -4z"/>
<path d="M4465 4385 c-14 -13 -25 -36 -25 -50 0 -27 40 -75 62 -75 32 0 87 -22 92 -37 4 -9 -1 -26 -9 -39 -22 -34 -76 -33 -103 1 -20 25 -52 34 -52 14 0 -6 13 -24 29 -40 24 -24 38 -29 76 -29 59 0 95 32 95 84 0 42 -21 59 -93 77 -56 14 -73 36 -51 67 19 28 67 29 94 2 11 -11 25 -20 30 -20 19 0 10 29 -16 49 -38 30 -98 28 -129 -4z"/>
<path d="M4863 4391 c-61 -38 -81 -125 -47 -197 38 -79 165 -87 204 -13 17 31 -13 35 -43 5 -34 -34 -80 -34 -112 -1 -21 20 -25 34 -25 80 0 49 4 60 29 86 16 16 37 29 46 29 22 0 57 -19 72 -39 9 -13 14 -14 24 -3 11 10 8 17 -12 38 -35 35 -94 41 -136 15z"/>
<path d="M5345 4390 c-112 -73 -69 -260 60 -260 50 0 91 28 111 76 53 126 -66 253 -171 184z m119 -40 c13 -12 21 -37 24 -74 4 -51 2 -57 -26 -86 -57 -56 -129 -25 -139 61 -12 103 75 164 141 99z"/>
<path d="M6570 4403 c-31 -11 -71 -58 -81 -95 -20 -77 34 -177 98 -179 44 -2 67 2 82 14 11 9 15 9 18 0 3 -7 11 -13 19 -13 11 0 14 16 14 70 l0 70 -55 0 c-46 0 -55 -3 -55 -17 0 -14 8 -18 37 -18 32 0 37 -3 35 -20 -9 -48 -65 -70 -114 -44 -22 12 -48 66 -48 100 0 34 29 85 56 98 36 16 49 14 81 -13 21 -18 33 -22 44 -15 11 8 8 15 -19 39 -31 29 -72 37 -112 23z"/>
<path d="M3500 4265 c0 -113 2 -135 15 -135 12 0 15 19 15 107 0 60 4 103 9 98 4 -6 25 -54 45 -107 21 -56 43 -98 51 -98 12 0 85 170 85 198 0 7 4 12 8 12 5 0 8 -47 8 -105 -1 -94 0 -105 16 -105 16 0 18 13 18 136 l0 135 -26 -3 c-23 -3 -31 -15 -66 -103 -22 -55 -41 -101 -42 -103 -2 -1 -21 45 -42 103 -37 98 -41 105 -66 105 l-28 0 0 -135z"/>
<path d="M3830 4265 l0 -135 89 0 c90 0 106 5 92 28 -5 8 -29 11 -74 8 l-67 -3 0 48 0 49 65 0 c51 0 65 3 65 15 0 12 -14 15 -65 15 l-65 0 0 40 0 40 70 0 c56 0 70 3 70 15 0 12 -17 15 -90 15 l-90 0 0 -135z"/>
<path d="M4080 4265 c0 -113 2 -135 15 -135 12 0 15 18 15 100 0 55 3 100 8 100 4 -1 36 -46 72 -100 92 -140 100 -137 100 35 0 128 -1 135 -20 135 -19 0 -20 -7 -20 -97 l0 -97 -67 97 c-95 138 -103 135 -103 -38z"/>
<path d="M4350 4380 c0 -11 5 -20 10 -20 7 0 7 -6 0 -19 -16 -31 -11 -38 10 -12 27 31 27 71 0 71 -13 0 -20 -7 -20 -20z"/>
<path d="M5081 4265 l1 -135 89 0 c82 0 89 1 89 20 0 18 -7 20 -70 20 l-70 0 0 115 c0 109 -1 115 -20 115 -20 0 -21 -5 -19 -135z"/>
<path d="M5540 4385 c0 -11 12 -15 45 -15 l45 0 0 -120 c0 -113 1 -120 20 -120 19 0 20 7 20 120 l0 120 45 0 c33 0 45 4 45 15 0 12 -19 15 -110 15 -91 0 -110 -3 -110 -15z"/>
<path d="M5818 4265 c3 -110 6 -135 18 -135 11 0 14 15 14 65 l0 65 70 0 70 0 0 -65 c0 -58 2 -65 20 -65 19 0 20 7 20 135 0 128 -1 135 -20 135 -18 0 -20 -7 -20 -55 l0 -55 -70 0 -70 0 0 55 c0 46 -3 55 -17 55 -16 0 -18 -12 -15 -135z"/>
<path d="M6100 4265 c0 -128 1 -135 20 -135 19 0 20 7 20 135 0 128 -1 135 -20 135 -19 0 -20 -7 -20 -135z"/>
<path d="M6210 4265 c0 -113 2 -135 15 -135 12 0 15 18 15 100 0 55 3 100 8 100 4 0 36 -45 72 -100 92 -140 100 -138 100 35 0 130 -1 135 -21 135 -19 0 -20 -5 -17 -95 2 -52 1 -95 -2 -95 -3 0 -34 43 -69 95 -92 136 -101 133 -101 -40z"/>
</g>
</svg>